<?xml version="1.0" encoding="utf-8"?>
<!-- Generator: Adobe Illustrator 25.2.3, SVG Export Plug-In . SVG Version: 6.00 Build 0)  -->
<svg version="1.1" id="Layer_1" xmlns="http://www.w3.org/2000/svg" xmlns:xlink="http://www.w3.org/1999/xlink" x="0px" y="0px"
	 viewBox="0 0 93 30" style="enable-background:new 0 0 93 30;" xml:space="preserve">
<g id="Symbols">
	<g id="Artboard" transform="translate(-199.000000, -173.000000)">
		<g id="LenovoLogo-POS-1Color-Copy" transform="translate(199.000000, 173.000000)">
			<path id="logo-red" d="M0,30V0h93v30H0z M19.4,18.8h-7.4V6.3H8.6v15.5h10.8V18.8z M30.7,11.7c-1.1-1.3-2.7-2-4.7-2
				c-3.6,0-6.3,2.7-6.3,6.2c0,3.6,2.7,6.2,6.7,6.2c2.2,0,4.5-1.1,5.5-2.3l-2.1-1.6c-1.4,1-2.2,1.3-3.4,1.3c-1.1,0-2-0.4-2.6-1
				l8.4-3.5C32,13.7,31.5,12.5,30.7,11.7L30.7,11.7z M45.4,14.4c0-2.7-2-4.7-4.8-4.7c-1.4,0-2.9,0.6-3.9,1.9V9.9h-3.3v11.9h3.3V15
				c0-1.2,0.9-2.5,2.7-2.5c1.4,0,2.8,0.9,2.8,2.5v6.8h3.3V14.4L45.4,14.4z M53.1,9.7c-3.6,0-6.4,2.7-6.4,6.2c0,3.5,2.8,6.2,6.4,6.2
				c3.6,0,6.4-2.7,6.4-6.2C59.5,12.4,56.7,9.7,53.1,9.7z M68.6,9.9l-3,8.1l-3-8.1H59l4.9,11.9h3.6l4.9-11.9H68.6L68.6,9.9z
				 M78.3,9.7c-3.6,0-6.4,2.7-6.4,6.2c0,3.5,2.8,6.2,6.4,6.2c3.6,0,6.4-2.7,6.4-6.2C84.7,12.4,81.9,9.7,78.3,9.7L78.3,9.7z
				 M78.3,19.2c-1.8,0-3.2-1.5-3.2-3.4c0-2,1.3-3.4,3.2-3.4c1.8,0,3.2,1.5,3.2,3.4C81.5,17.8,80.1,19.2,78.3,19.2z M53.1,19.2
				c-1.8,0-3.2-1.5-3.2-3.4c0-2,1.3-3.4,3.2-3.4c1.8,0,3.2,1.5,3.2,3.4C56.3,17.8,54.9,19.2,53.1,19.2z M23.6,13.5
				c0.6-0.7,1.4-1.2,2.5-1.2c1.2,0,2.1,0.7,2.5,1.7l-5.7,2.4C22.7,15.1,23.1,14.2,23.6,13.5L23.6,13.5z"/>
		</g>
	</g>
</g>
</svg>
